<svg xmlns="http://www.w3.org/2000/svg" xmlns:xlink="http://www.w3.org/1999/xlink" xml:space="preserve" width="500" height="325.774"><defs><clipPath id="d" clipPathUnits="userSpaceOnUse"><use xlink:href="#a" width="100%" height="100%"/></clipPath><clipPath id="c" clip-path="url(#clipPath3)" clipPathUnits="userSpaceOnUse"><use xlink:href="#b" width="100%" height="100%" transform="translate(-512.002 -347.783)"/></clipPath><path id="b" d="M 0,774 H 594 V 0.015 H 0 Z"/><path id="a" d="m 402.44199,379.3108 34.73048,90.29528 120.15115,-46.21401 -34.73048,-90.29528 z"/><linearGradient id="e" x1="0" x2="1" y1="0" y2="0" gradientTransform="matrix(22.936 59.631 59.631 -22.936 468.516 380.152)" gradientUnits="userSpaceOnUse" spreadMethod="pad"><stop offset="0" stop-color="#ee2722"/><stop offset="1" stop-color="#f46a4f"/></linearGradient></defs><path fill="#ee2722" d="m 0,0 c -0.644,-1.801 -2.958,-3.265 -5.172,-3.265 h -99.83 c -2.213,0 -3.485,1.464 -2.853,3.265 l 30.707,81.395 c 0.648,1.801 2.963,3.266 5.176,3.266 h 95.884 c 2.209,0 3.493,-1.465 2.858,-3.266 L 0,0" clip-path="url(#c)" transform="matrix(3.70509 0 0 -3.70509 400.213 313.677)"/><path fill="url(#e)" d="m 531.79,431.046 c 5.635,0 3.712,-5.504 3.712,-5.504 l -11.588,-33.038 c 0,0 -14.63,-20.847 -52.414,-20.847 -37.798,0 -49.159,18.507 -49.159,18.507 0,0 9.922,27.131 12.287,33.561 2.381,6.437 10.792,6.64 10.792,6.64 l 86.37,0.681" clip-path="url(#d)" transform="matrix(3.70509 0 0 -3.70509 -1496.8 1602.24)"/><path fill="#fff" d="M 0,0 H -22.25 L -42.641,-14.996 -37.818,0 h -35.601 c 1.553,1.599 3.824,2.574 7.712,3.248 l 16.313,2.886 c 6.501,1.153 15.872,4.41 18.459,12.489 3.796,11.89 -8.529,14.348 -22.502,14.348 -10.847,0 -25.515,-1.961 -31.482,-16.612 h 18.388 c 2.263,5.521 7.111,5.949 11.764,5.949 3.989,0 6.678,-0.985 5.891,-3.425 -0.568,-1.784 -2.087,-2.886 -4.363,-3.315 l -13.427,-2.701 c -10.881,-2.206 -22.83,-7.163 -28.368,-23.53 h 37.002 L -68.21,-42.491 h 16.784 l 3.648,11.419 7.094,4.889 6.391,-16.308 h 22.31 L -24.236,-16.427 0,0" transform="matrix(3.70509 0 0 -3.70509 423.581 147.078)"/></svg>